<svg width="366" height="289" viewBox="0 0 366 289" fill="none" xmlns="http://www.w3.org/2000/svg">
    <mask id="path-1-outside-1_2010_66580" maskUnits="userSpaceOnUse" x="0" y="0" width="366"
        height="289" fill="black">
        <rect fill="white" width="366" height="289" />
        <path fill-rule="evenodd" clip-rule="evenodd"
            d="M4 5C4 3.89543 4.89544 3 6 3H284.251C285.355 3 286.251 3.89543 286.251 5V82.2077C286.251 83.5007 287.459 84.4528 288.728 84.204C292.578 83.4491 296.556 83.0535 300.627 83.0535C334.584 83.0535 362.111 110.581 362.111 144.538C362.111 178.495 334.584 206.022 300.627 206.022C296.556 206.022 292.578 205.627 288.728 204.872C287.459 204.623 286.251 205.575 286.251 206.868V283.251C286.251 284.355 285.355 285.251 284.251 285.251H6C4.89543 285.251 4 284.355 4 283.251V206.13C4 204.791 5.29146 203.83 6.59025 204.158C11.4175 205.375 16.4719 206.022 21.6774 206.022C55.6343 206.022 83.1618 178.495 83.1618 144.538C83.1618 110.581 55.6343 83.0535 21.6774 83.0535C16.4719 83.0535 11.4175 83.7004 6.59025 84.9182C5.29147 85.2458 4 84.2849 4 82.9454V5Z" />
    </mask>
    <path
        d="M300.627 84.5535H302.127V81.5535H300.627V84.5535ZM360.611 144.538V146.038H363.611V144.538H360.611ZM300.627 204.522H299.127V207.522H300.627V204.522ZM21.6774 207.522H23.1774V204.522H21.6774V207.522ZM84.6618 144.538V143.038H81.6618V144.538H84.6618ZM21.6774 81.5535H20.1774V84.5535H21.6774V81.5535ZM5.5 206.13V204.63H2.5V206.13H5.5ZM6.22334 205.612L7.67777 205.979L8.41159 203.07L6.95716 202.703L6.22334 205.612ZM284.251 283.751H282.751V286.751H284.251V283.751ZM6.22334 83.4637L4.76891 83.8306L5.50272 86.7395L6.95716 86.3726L6.22334 83.4637ZM284.751 82.2077V83.7077H287.751V82.2077H284.751ZM289.017 85.6759L290.489 85.3873L289.911 82.4434L288.439 82.732L289.017 85.6759ZM289.017 203.4L287.545 203.111L286.967 206.055L288.439 206.344L289.017 203.4ZM6 4.5H7.5V1.5H6V4.5ZM294.505 81.8473L293.012 81.9913L293.3 84.9775L294.793 84.8334L294.505 81.8473ZM287.952 82.6135L286.778 81.6794L284.91 84.0267L286.083 84.9608L287.952 82.6135ZM287.751 75.7737V74.2737H284.751V75.7737H287.751ZM284.751 62.9057V64.4057H287.751V62.9057H284.751ZM287.751 50.0378V48.5378H284.751V50.0378H287.751ZM284.751 37.1699V38.6699H287.751V37.1699H284.751ZM287.751 24.3019V22.8019H284.751V24.3019H287.751ZM284.751 11.434V12.934H287.751V11.434H284.751ZM277.626 1.5H276.126V4.5H277.626V1.5ZM264.376 4.5H265.876V1.5H264.376V4.5ZM251.125 1.5H249.625V4.5H251.125V1.5ZM237.875 4.5H239.375V1.5H237.875V4.5ZM224.625 1.5H223.125V4.5H224.625V1.5ZM211.375 4.5H212.875V1.5H211.375V4.5ZM198.125 1.5H196.625V4.5H198.125V1.5ZM184.875 4.5H186.375V1.5H184.875V4.5ZM171.625 1.5H170.125V4.5H171.625V1.5ZM158.375 4.5H159.875V1.5H158.375V4.5ZM145.125 1.5H143.625V4.5H145.125V1.5ZM131.875 4.5H133.375V1.5H131.875V4.5ZM118.625 1.5H117.125V4.5H118.625V1.5ZM105.375 4.5H106.875V1.5H105.375V4.5ZM92.1252 1.5H90.6252V4.5H92.1252V1.5ZM78.8751 4.5H80.3751V1.5H78.8751V4.5ZM65.6251 1.5H64.1251V4.5H65.6251V1.5ZM52.3751 4.5H53.8751V1.5H52.3751V4.5ZM39.125 1.5H37.625V4.5H39.125V1.5ZM25.875 4.5H27.375V1.5H25.875V4.5ZM12.625 1.5H11.125V4.5H12.625V1.5ZM2.5 11.4955V12.9955H5.5V11.4955H2.5ZM5.5 24.4864V22.9864H2.5V24.4864H5.5ZM2.5 37.4773V38.9773H5.5V37.4773H2.5ZM5.5 50.4682V48.9682H2.5V50.4682H5.5ZM2.5 63.4591V64.9591H5.5V63.4591H2.5ZM5.5 76.45V74.95H2.5V76.45H5.5ZM3.91142 85.7595L5.11053 86.6607L6.9129 84.2624L5.71379 83.3613L3.91142 85.7595ZM14.2595 85.0075L15.7482 84.8239L15.3811 81.8465L13.8924 82.03L14.2595 85.0075ZM28.3988 84.9258L29.8896 85.0919L30.222 82.1104L28.7312 81.9442L28.3988 84.9258ZM42.4868 85.0727L41.0709 84.5773L40.0801 87.4089L41.4959 87.9043L42.4868 85.0727ZM53.5936 93.7398L54.863 94.539L56.4614 92.0004L55.1921 91.2011L53.5936 93.7398ZM66.2141 100.001L65.1534 98.9406L63.0321 101.062L64.0927 102.123L66.2141 100.001ZM72.4755 112.622L73.2747 113.891L75.8134 112.292L75.0141 111.023L72.4755 112.622ZM81.1426 123.728L80.6472 122.313L77.8155 123.304L78.3109 124.719L81.1426 123.728ZM81.2895 137.816L81.4557 139.307L84.4372 138.975L84.271 137.484L81.2895 137.816ZM81.2895 151.259L81.1233 152.75L84.1049 153.082L84.271 151.592L81.2895 151.259ZM81.1426 165.347L81.638 163.931L78.8064 162.941L78.3109 164.356L81.1426 165.347ZM72.4755 176.454L71.6762 177.724L74.2149 179.322L75.0141 178.053L72.4755 176.454ZM66.2141 189.075L67.2747 188.014L65.1534 185.893L64.0927 186.953L66.2141 189.075ZM53.5936 195.336L52.3243 196.135L53.9228 198.674L55.1921 197.875L53.5936 195.336ZM42.4868 204.003L43.9026 203.508L42.9117 200.676L41.4959 201.171L42.4868 204.003ZM28.3988 204.15L26.9081 204.316L27.2404 207.298L28.7312 207.132L28.3988 204.15ZM14.2595 204.068L12.7708 203.885L12.4037 206.862L13.8924 207.046L14.2595 204.068ZM3.91142 203.316L2.71231 204.218L4.51468 206.616L5.71379 205.715L3.91142 203.316ZM2.5 212.557V214.057H5.5V212.557H2.5ZM5.5 225.41V223.91H2.5V225.41H5.5ZM2.5 238.264V239.764H5.5V238.264H2.5ZM5.5 251.117V249.617H2.5V251.117H5.5ZM2.5 263.971V265.471H5.5V263.971H2.5ZM5.5 276.824V275.324H2.5V276.824H5.5ZM12.625 286.751H14.125V283.751H12.625V286.751ZM25.875 283.751H24.375V286.751H25.875V283.751ZM39.1251 286.751H40.6251V283.751H39.1251V286.751ZM52.3751 283.751H50.8751V286.751H52.3751V283.751ZM65.6251 286.751H67.1251V283.751H65.6251V286.751ZM78.8751 283.751H77.3751V286.751H78.8751V283.751ZM92.1252 286.751H93.6252V283.751H92.1252V286.751ZM105.375 283.751H103.875V286.751H105.375V283.751ZM118.625 286.751H120.125V283.751H118.625V286.751ZM131.875 283.751H130.375V286.751H131.875V283.751ZM145.125 286.751H146.625V283.751H145.125V286.751ZM158.375 283.751H156.875V286.751H158.375V283.751ZM171.625 286.751H173.125V283.751H171.625V286.751ZM184.875 283.751H183.375V286.751H184.875V283.751ZM198.125 286.751H199.625V283.751H198.125V286.751ZM211.375 283.751H209.875V286.751H211.375V283.751ZM224.625 286.751H226.125V283.751H224.625V286.751ZM237.875 283.751H236.375V286.751H237.875V283.751ZM251.126 286.751H252.626V283.751H251.126V286.751ZM264.376 283.751H262.876V286.751H264.376V283.751ZM277.626 286.751H279.126V283.751H277.626V286.751ZM287.751 276.885V275.385H284.751V276.885H287.751ZM284.751 264.155V265.655H287.751V264.155H284.751ZM287.751 251.425V249.925H284.751V251.425H287.751ZM284.751 238.694V240.194H287.751V238.694H284.751ZM287.751 225.964V224.464H284.751V225.964H287.751ZM284.751 213.233V214.733H287.751V213.233H284.751ZM287.952 206.462L289.125 205.528L287.257 203.181L286.083 204.115L287.952 206.462ZM294.505 207.229L295.998 207.373L296.286 204.386L294.793 204.242L294.505 207.229ZM307.681 207.132L309.171 206.965L308.839 203.984L307.348 204.15L307.681 207.132ZM320.445 201.171L319.029 201.667L320.02 204.499L321.436 204.003L320.445 201.171ZM334.141 197.875L335.411 197.075L333.812 194.537L332.543 195.336L334.141 197.875ZM343.042 186.953L341.981 188.014L344.103 190.135L345.163 189.075L343.042 186.953ZM353.963 178.053L354.763 176.783L352.224 175.185L351.425 176.454L353.963 178.053ZM357.26 164.356L356.765 165.772L359.596 166.763L360.092 165.347L357.26 164.356ZM363.22 151.592L363.387 150.101L360.405 149.769L360.239 151.259L363.22 151.592ZM363.22 137.484L363.054 135.993L360.073 136.326L360.239 137.816L363.22 137.484ZM357.26 124.719L357.756 126.135L360.587 125.144L360.092 123.728L357.26 124.719ZM353.963 111.023L353.164 109.754L350.626 111.352L351.425 112.622L353.963 111.023ZM343.042 102.123L344.103 103.183L346.224 101.062L345.163 100.001L343.042 102.123ZM334.141 91.2011L332.872 90.4019L331.274 92.9406L332.543 93.7398L334.141 91.2011ZM320.445 87.9043L321.861 88.3998L322.852 85.5681L321.436 85.0727L320.445 87.9043ZM307.681 81.9442L306.19 81.778L305.857 84.7596L307.348 84.9258L307.681 81.9442ZM300.627 81.5535C298.562 81.5535 296.52 81.6529 294.505 81.8473L294.793 84.8334C296.712 84.6483 298.658 84.5535 300.627 84.5535V81.5535ZM288.439 82.732C288.258 82.7675 288.084 82.719 287.952 82.6135L286.083 84.9608C286.871 85.5881 287.932 85.8886 289.017 85.6759L288.439 82.732ZM287.751 82.2077V75.7737H284.751V82.2077H287.751ZM287.751 62.9057V50.0378H284.751V62.9057H287.751ZM287.751 37.1699V24.3019H284.751V37.1699H287.751ZM287.751 11.434V5H284.751V11.434H287.751ZM287.751 5C287.751 3.067 286.184 1.5 284.251 1.5V4.5C284.527 4.5 284.751 4.72386 284.751 5H287.751ZM284.251 1.5H277.626V4.5H284.251V1.5ZM264.376 1.5H251.125V4.5H264.376V1.5ZM237.875 1.5H224.625V4.5H237.875V1.5ZM211.375 1.5H198.125V4.5H211.375V1.5ZM184.875 1.5H171.625V4.5H184.875V1.5ZM158.375 1.5H145.125V4.5H158.375V1.5ZM131.875 1.5H118.625V4.5H131.875V1.5ZM105.375 1.5H92.1252V4.5H105.375V1.5ZM78.8751 1.5H65.6251V4.5H78.8751V1.5ZM52.3751 1.5H39.125V4.5H52.3751V1.5ZM25.875 1.5H12.625V4.5H25.875V1.5ZM6 1.5C4.06701 1.5 2.5 3.067 2.5 5H5.5C5.5 4.72386 5.72386 4.5 6 4.5V1.5ZM2.5 5V11.4955H5.5V5H2.5ZM2.5 24.4864V37.4773H5.5V24.4864H2.5ZM2.5 50.4682V63.4591H5.5V50.4682H2.5ZM2.5 76.45V82.9454H5.5V76.45H2.5ZM2.5 82.9454C2.5 84.1232 3.07499 85.1309 3.91142 85.7595L5.71379 83.3613C5.57476 83.2568 5.5 83.1113 5.5 82.9454H2.5ZM6.95716 86.3726C9.33761 85.7721 11.7749 85.3138 14.2595 85.0075L13.8924 82.03C11.2836 82.3517 8.72382 82.8329 6.22334 83.4637L6.95716 86.3726ZM21.6774 84.5535C23.9501 84.5535 26.1928 84.6798 28.3988 84.9258L28.7312 81.9442C26.415 81.686 24.0614 81.5535 21.6774 81.5535V84.5535ZM41.4959 87.9043C45.7696 89.3998 49.8228 91.3655 53.5936 93.7398L55.1921 91.2011C51.2328 88.7082 46.976 86.6435 42.4868 85.0727L41.4959 87.9043ZM64.0927 102.123C67.2612 105.291 70.0768 108.812 72.4755 112.622L75.0141 111.023C72.4956 107.023 69.5399 103.327 66.2141 100.001L64.0927 102.123ZM78.3109 124.719C79.7714 128.893 80.7836 133.278 81.2895 137.816L84.271 137.484C83.7399 132.719 82.6768 128.113 81.1426 123.728L78.3109 124.719ZM81.6618 144.538C81.6618 146.811 81.5354 149.053 81.2895 151.259L84.271 151.592C84.5292 149.276 84.6618 146.922 84.6618 144.538H81.6618ZM78.3109 164.356C76.8155 168.63 74.8498 172.683 72.4755 176.454L75.0141 178.053C77.5071 174.093 79.5717 169.837 81.1426 165.347L78.3109 164.356ZM64.0927 186.953C60.9242 190.122 57.4031 192.937 53.5936 195.336L55.1921 197.875C59.1919 195.356 62.8882 192.4 66.2141 189.075L64.0927 186.953ZM41.4959 201.171C37.3221 202.632 32.9373 203.644 28.3988 204.15L28.7312 207.132C33.4966 206.6 38.1022 205.537 42.4868 204.003L41.4959 201.171ZM21.6774 204.522C19.1651 204.522 16.6895 204.368 14.2595 204.068L13.8924 207.046C16.4439 207.36 19.0421 207.522 21.6774 207.522V204.522ZM6.95716 202.703C5.84773 202.423 4.73957 202.694 3.91142 203.316L5.71379 205.715C5.85506 205.608 6.03802 205.565 6.22334 205.612L6.95716 202.703ZM2.5 206.13V212.557H5.5V206.13H2.5ZM2.5 225.41V238.264H5.5V225.41H2.5ZM2.5 251.117V263.971H5.5V251.117H2.5ZM2.5 276.824V283.251H5.5V276.824H2.5ZM2.5 283.251C2.5 285.184 4.067 286.751 6 286.751V283.751C5.72386 283.751 5.5 283.527 5.5 283.251H2.5ZM6 286.751H12.625V283.751H6V286.751ZM25.875 286.751H39.1251V283.751H25.875V286.751ZM52.3751 286.751H65.6251V283.751H52.3751V286.751ZM78.8751 286.751H92.1252V283.751H78.8751V286.751ZM105.375 286.751H118.625V283.751H105.375V286.751ZM131.875 286.751H145.125V283.751H131.875V286.751ZM158.375 286.751H171.625V283.751H158.375V286.751ZM184.875 286.751H198.125V283.751H184.875V286.751ZM211.375 286.751H224.625V283.751H211.375V286.751ZM237.875 286.751H251.126V283.751H237.875V286.751ZM264.376 286.751H277.626V283.751H264.376V286.751ZM284.251 286.751C286.184 286.751 287.751 285.184 287.751 283.251H284.751C284.751 283.527 284.527 283.751 284.251 283.751V286.751ZM287.751 283.251V276.885H284.751V283.251H287.751ZM287.751 264.155V251.425H284.751V264.155H287.751ZM287.751 238.694V225.964H284.751V238.694H287.751ZM287.751 213.233V206.868H284.751V213.233H287.751ZM287.751 206.868C287.751 206.708 287.821 206.566 287.952 206.462L286.083 204.115C285.288 204.748 284.751 205.732 284.751 206.868H287.751ZM288.439 206.344C290.43 206.734 292.453 207.031 294.505 207.229L294.793 204.242C292.839 204.054 290.912 203.771 289.017 203.4L288.439 206.344ZM300.627 207.522C303.011 207.522 305.364 207.39 307.681 207.132L307.348 204.15C305.142 204.396 302.899 204.522 300.627 204.522V207.522ZM321.436 204.003C325.925 202.432 330.182 200.368 334.141 197.875L332.543 195.336C328.772 197.71 324.719 199.676 320.445 201.171L321.436 204.003ZM345.163 189.075C348.489 185.749 351.445 182.052 353.963 178.053L351.425 176.454C349.026 180.264 346.211 183.785 343.042 186.953L345.163 189.075ZM360.092 165.347C361.626 160.963 362.689 156.357 363.22 151.592L360.239 151.259C359.733 155.798 358.721 160.183 357.26 164.356L360.092 165.347ZM363.611 144.538C363.611 142.154 363.479 139.8 363.22 137.484L360.239 137.816C360.485 140.022 360.611 142.265 360.611 144.538H363.611ZM360.092 123.728C358.521 119.239 356.456 114.982 353.963 111.023L351.425 112.622C353.799 116.392 355.765 120.446 357.26 124.719L360.092 123.728ZM345.163 100.001C341.838 96.6754 338.141 93.7196 334.141 91.2011L332.543 93.7398C336.352 96.1385 339.874 98.954 343.042 102.123L345.163 100.001ZM321.436 85.0727C317.052 83.5384 312.446 82.4754 307.681 81.9442L307.348 84.9258C311.887 85.4317 316.271 86.4438 320.445 87.9043L321.436 85.0727ZM300.627 86.0535H303.627V80.0535H300.627V86.0535ZM359.111 144.538V147.538H365.111V144.538H359.111ZM300.627 203.022H297.627V209.022H300.627V203.022ZM21.6774 209.022H24.6774V203.022H21.6774V209.022ZM86.1618 144.538V141.538H80.1618V144.538H86.1618ZM21.6774 80.0535H18.6774V86.0535H21.6774V80.0535ZM7 206.13V203.13H1V206.13H7ZM5.85643 207.067L8.7653 207.8L10.2329 201.983L7.32406 201.249L5.85643 207.067ZM284.251 282.251H281.251V288.251H284.251V282.251ZM5.85643 82.0093L2.94757 82.7431L4.4152 88.5609L7.32407 87.827L5.85643 82.0093ZM283.251 82.2077V85.2077H289.251V82.2077H283.251ZM289.305 87.1479L292.249 86.5706L291.095 80.6828L288.151 81.26L289.305 87.1479ZM289.305 201.928L286.361 201.351L285.207 207.239L288.151 207.816L289.305 201.928ZM6 6H9V0H6V6ZM294.361 80.3542L291.375 80.6423L291.951 86.6146L294.937 86.3265L294.361 80.3542ZM288.886 81.4399L286.538 79.5717L282.802 84.2662L285.149 86.1344L288.886 81.4399ZM289.251 75.7737V72.7737H283.251V75.7737H289.251ZM283.251 62.9057V65.9057H289.251V62.9057H283.251ZM289.251 50.0378V47.0378H283.251V50.0378H289.251ZM283.251 37.1699V40.1699H289.251V37.1699H283.251ZM289.251 24.3019V21.3019H283.251V24.3019H289.251ZM283.251 11.434V14.434H289.251V11.434H283.251ZM277.626 0H274.626V6H277.626V0ZM264.376 6H267.376V0H264.376V6ZM251.125 0H248.125V6H251.125V0ZM237.875 6H240.875V0H237.875V6ZM224.625 0H221.625V6H224.625V0ZM211.375 6H214.375V0H211.375V6ZM198.125 0H195.125V6H198.125V0ZM184.875 6H187.875V0H184.875V6ZM171.625 0H168.625V6H171.625V0ZM158.375 6H161.375V0H158.375V6ZM145.125 0H142.125V6H145.125V0ZM131.875 6H134.875V0H131.875V6ZM118.625 0H115.625V6H118.625V0ZM105.375 6H108.375V0H105.375V6ZM92.1252 0H89.1252V6H92.1252V0ZM78.8751 6H81.8751V0H78.8751V6ZM65.6251 0H62.6251V6H65.6251V0ZM52.3751 6H55.3751V0H52.3751V6ZM39.125 0H36.125V6H39.125V0ZM25.875 6H28.875V0H25.875V6ZM12.625 0H9.62501V6H12.625V0ZM1 11.4955V14.4955H7V11.4955H1ZM7 24.4864V21.4864H1V24.4864H7ZM1 37.4773V40.4773H7V37.4773H1ZM7 50.4682V47.4682H1V50.4682H7ZM1 63.4591V66.4591H7V63.4591H1ZM7 76.45V73.45H1V76.45H7ZM3.01024 86.9586L5.40846 88.761L9.0132 83.9645L6.61498 82.1621L3.01024 86.9586ZM14.4431 86.4962L17.4205 86.1291L16.6863 80.1742L13.7088 80.5413L14.4431 86.4962ZM28.2327 86.4165L31.2142 86.7489L31.8789 80.7858L28.8974 80.4535L28.2327 86.4165ZM42.9822 83.6569L40.1505 82.666L38.1689 88.3293L41.0005 89.3202L42.9822 83.6569ZM52.7944 95.0091L55.3331 96.6076L58.53 91.5303L55.9913 89.9318L52.7944 95.0091ZM67.2747 98.9406L65.1534 96.8192L60.9107 101.062L63.0321 103.183L67.2747 98.9406ZM71.2061 113.421L72.8046 115.96L77.882 112.763L76.2835 110.224L71.2061 113.421ZM82.5584 123.233L81.5676 120.401L75.9043 122.383L76.8951 125.215L82.5584 123.233ZM79.7988 137.983L80.1311 140.964L86.0942 140.299L85.7618 137.318L79.7988 137.983ZM79.7988 151.093L79.4664 154.075L85.4295 154.739L85.7618 151.758L79.7988 151.093ZM82.5584 165.843L83.5493 163.011L77.886 161.029L76.8951 163.861L82.5584 165.843ZM71.2061 175.655L69.6077 178.194L74.685 181.391L76.2835 178.852L71.2061 175.655ZM67.2747 190.135L69.396 188.014L65.1534 183.771L63.0321 185.893L67.2747 190.135ZM52.7944 194.067L50.2557 195.665L53.4527 200.743L55.9913 199.144L52.7944 194.067ZM42.9822 205.419L45.8138 204.428L43.8321 198.765L41.0005 199.756L42.9822 205.419ZM28.2327 202.659L25.2511 202.992L25.9158 208.955L28.8974 208.622L28.2327 202.659ZM14.4431 202.58L11.4656 202.212L10.7314 208.167L13.7088 208.535L14.4431 202.58ZM3.01024 202.117L0.612016 203.92L4.21675 208.716L6.61498 206.914L3.01024 202.117ZM1 212.557V215.557H7V212.557H1ZM7 225.41V222.41H1V225.41H7ZM1 238.264V241.264H7V238.264H1ZM7 251.117V248.117H1V251.117H7ZM1 263.971V266.971H7V263.971H1ZM7 276.824V273.824H1V276.824H7ZM12.625 288.251H15.625V282.251H12.625V288.251ZM25.875 282.251H22.875V288.251H25.875V282.251ZM39.1251 288.251H42.1251V282.251H39.1251V288.251ZM52.3751 282.251H49.3751V288.251H52.3751V282.251ZM65.6251 288.251H68.6251V282.251H65.6251V288.251ZM78.8751 282.251H75.8751V288.251H78.8751V282.251ZM92.1252 288.251H95.1252V282.251H92.1252V288.251ZM105.375 282.251H102.375V288.251H105.375V282.251ZM118.625 288.251H121.625V282.251H118.625V288.251ZM131.875 282.251H128.875V288.251H131.875V282.251ZM145.125 288.251H148.125V282.251H145.125V288.251ZM158.375 282.251H155.375V288.251H158.375V282.251ZM171.625 288.251H174.625V282.251H171.625V288.251ZM184.875 282.251H181.875V288.251H184.875V282.251ZM198.125 288.251H201.125V282.251H198.125V288.251ZM211.375 282.251H208.375V288.251H211.375V282.251ZM224.625 288.251H227.625V282.251H224.625V288.251ZM237.875 282.251H234.875V288.251H237.875V282.251ZM251.126 288.251H254.126V282.251H251.126V288.251ZM264.376 282.251H261.376V288.251H264.376V282.251ZM277.626 288.251H280.626V282.251H277.626V288.251ZM289.251 276.885V273.885H283.251V276.885H289.251ZM283.251 264.155V267.155H289.251V264.155H283.251ZM289.251 251.425V248.425H283.251V251.425H289.251ZM283.251 238.694V241.694H289.251V238.694H283.251ZM289.251 225.964V222.964H283.251V225.964H289.251ZM283.251 213.233V216.233H289.251V213.233H283.251ZM288.886 207.636L291.233 205.768L287.496 201.073L285.149 202.941L288.886 207.636ZM294.361 208.722L297.347 209.01L297.924 203.037L294.937 202.749L294.361 208.722ZM307.847 208.622L310.828 208.29L310.164 202.327L307.182 202.659L307.847 208.622ZM319.95 199.756L317.118 200.747L319.1 206.41L321.932 205.419L319.95 199.756ZM334.941 199.144L337.479 197.546L334.282 192.468L331.744 194.067L334.941 199.144ZM341.981 185.893L339.86 188.014L344.103 192.257L346.224 190.135L341.981 185.893ZM355.233 178.852L356.831 176.313L351.754 173.116L350.155 175.655L355.233 178.852ZM355.844 163.861L354.854 166.693L360.517 168.674L361.508 165.843L355.844 163.861ZM364.711 151.758L365.043 148.776L359.08 148.112L358.748 151.093L364.711 151.758ZM364.711 137.318L364.379 134.336L358.416 135.001L358.748 137.983L364.711 137.318ZM355.844 125.215L356.835 128.046L362.499 126.065L361.508 123.233L355.844 125.215ZM355.233 110.224L353.634 107.685L348.557 110.882L350.155 113.421L355.233 110.224ZM341.981 103.183L344.103 105.305L348.345 101.062L346.224 98.9406L341.981 103.183ZM334.941 89.9318L332.402 88.3333L329.205 93.4107L331.744 95.0091L334.941 89.9318ZM319.95 89.3202L322.781 90.311L324.763 84.6477L321.932 83.6569L319.95 89.3202ZM307.847 80.4535L304.865 80.1211L304.2 86.0842L307.182 86.4165L307.847 80.4535ZM300.627 80.0535C298.514 80.0535 296.424 80.1552 294.361 80.3542L294.937 86.3265C296.809 86.146 298.706 86.0535 300.627 86.0535V80.0535ZM288.151 81.26C288.422 81.2069 288.69 81.2845 288.886 81.4399L285.149 86.1344C286.265 87.0226 287.769 87.4491 289.305 87.1479L288.151 81.26ZM289.251 82.2077V75.7737H283.251V82.2077H289.251ZM289.251 62.9057V50.0378H283.251V62.9057H289.251ZM289.251 37.1699V24.3019H283.251V37.1699H289.251ZM289.251 11.434V5H283.251V11.434H289.251ZM289.251 5C289.251 2.23857 287.012 0 284.251 0V6C283.698 6 283.251 5.55229 283.251 5H289.251ZM284.251 0H277.626V6H284.251V0ZM264.376 0H251.125V6H264.376V0ZM237.875 0H224.625V6H237.875V0ZM211.375 0H198.125V6H211.375V0ZM184.875 0H171.625V6H184.875V0ZM158.375 0H145.125V6H158.375V0ZM131.875 0H118.625V6H131.875V0ZM105.375 0H92.1252V6H105.375V0ZM78.8751 0H65.6251V6H78.8751V0ZM52.3751 0H39.125V6H52.3751V0ZM25.875 0H12.625V6H25.875V0ZM6 0C3.23859 0 1 2.23857 1 5H7C7 5.55229 6.55228 6 6 6V0ZM1 5V11.4955H7V5H1ZM1 24.4864V37.4773H7V24.4864H1ZM1 50.4682V63.4591H7V50.4682H1ZM1 76.45V82.9454H7V76.45H1ZM1 82.9454C1 84.6291 1.82511 86.0679 3.01024 86.9586L6.61498 82.1621C6.82464 82.3197 7 82.6053 7 82.9454H1ZM7.32407 87.827C9.64451 87.2417 12.0206 86.7949 14.4431 86.4962L13.7088 80.5413C11.0379 80.8706 8.41693 81.3634 5.85643 82.0093L7.32407 87.827ZM21.6774 86.0535C23.8945 86.0535 26.0817 86.1768 28.2327 86.4165L28.8974 80.4535C26.5261 80.1891 24.117 80.0535 21.6774 80.0535V86.0535ZM41.0005 89.3202C45.1664 90.7779 49.1178 92.6942 52.7944 95.0091L55.9913 89.9318C51.9378 87.3795 47.5792 85.2654 42.9822 83.6569L41.0005 89.3202ZM63.0321 103.183C66.1219 106.273 68.8674 109.707 71.2061 113.421L76.2835 110.224C73.7051 106.129 70.6792 102.345 67.2747 98.9406L63.0321 103.183ZM76.8951 125.215C78.3187 129.283 79.3055 133.558 79.7988 137.983L85.7618 137.318C85.218 132.439 84.1295 127.723 82.5584 123.233L76.8951 125.215ZM80.1618 144.538C80.1618 146.755 80.0385 148.942 79.7988 151.093L85.7618 151.758C86.0261 149.387 86.1618 146.978 86.1618 144.538H80.1618ZM76.8951 163.861C75.4374 168.027 73.5211 171.978 71.2061 175.655L76.2835 178.852C78.8358 174.798 80.9498 170.44 82.5584 165.843L76.8951 163.861ZM63.0321 185.893C59.9422 188.982 56.5087 191.728 52.7944 194.067L55.9913 199.144C60.0863 196.566 63.8702 193.54 67.2747 190.135L63.0321 185.893ZM41.0005 199.756C36.9321 201.179 32.6576 202.166 28.2327 202.659L28.8974 208.622C33.7762 208.079 38.4922 206.99 42.9822 205.419L41.0005 199.756ZM21.6774 203.022C19.2266 203.022 16.8123 202.872 14.4431 202.58L13.7088 208.535C16.3211 208.857 18.9805 209.022 21.6774 209.022V203.022ZM7.32406 201.249C5.75258 200.852 4.18183 201.237 3.01024 202.117L6.61498 206.914C6.41281 207.066 6.13316 207.136 5.85643 207.067L7.32406 201.249ZM1 206.13V212.557H7V206.13H1ZM1 225.41V238.264H7V225.41H1ZM1 251.117V263.971H7V251.117H1ZM1 276.824V283.251H7V276.824H1ZM1 283.251C1 286.012 3.23858 288.251 6 288.251V282.251C6.55228 282.251 7 282.698 7 283.251H1ZM6 288.251H12.625V282.251H6V288.251ZM25.875 288.251H39.1251V282.251H25.875V288.251ZM52.3751 288.251H65.6251V282.251H52.3751V288.251ZM78.8751 288.251H92.1252V282.251H78.8751V288.251ZM105.375 288.251H118.625V282.251H105.375V288.251ZM131.875 288.251H145.125V282.251H131.875V288.251ZM158.375 288.251H171.625V282.251H158.375V288.251ZM184.875 288.251H198.125V282.251H184.875V288.251ZM211.375 288.251H224.625V282.251H211.375V288.251ZM237.875 288.251H251.126V282.251H237.875V288.251ZM264.376 288.251H277.626V282.251H264.376V288.251ZM284.251 288.251C287.012 288.251 289.251 286.012 289.251 283.251H283.251C283.251 282.698 283.698 282.251 284.251 282.251V288.251ZM289.251 283.251V276.885H283.251V283.251H289.251ZM289.251 264.155V251.425H283.251V264.155H289.251ZM289.251 238.694V225.964H283.251V238.694H289.251ZM289.251 213.233V206.868H283.251V213.233H289.251ZM289.251 206.868C289.251 207.196 289.088 207.475 288.886 207.636L285.149 202.941C284.021 203.839 283.251 205.243 283.251 206.868H289.251ZM288.151 207.816C290.189 208.215 292.26 208.519 294.361 208.722L294.937 202.749C293.031 202.565 291.153 202.29 289.305 201.928L288.151 207.816ZM300.627 209.022C303.066 209.022 305.475 208.887 307.847 208.622L307.182 202.659C305.031 202.899 302.844 203.022 300.627 203.022V209.022ZM321.932 205.419C326.529 203.81 330.887 201.696 334.941 199.144L331.744 194.067C328.067 196.382 324.116 198.298 319.95 199.756L321.932 205.419ZM346.224 190.135C349.629 186.731 352.654 182.947 355.233 178.852L350.155 175.655C347.817 179.369 345.071 182.803 341.981 185.893L346.224 190.135ZM361.508 165.843C363.079 161.353 364.167 156.637 364.711 151.758L358.748 151.093C358.255 155.518 357.268 159.793 355.844 163.861L361.508 165.843ZM365.111 144.538C365.111 142.098 364.975 139.689 364.711 137.318L358.748 137.983C358.988 140.134 359.111 142.321 359.111 144.538H365.111ZM361.508 123.233C359.899 118.636 357.785 114.277 355.233 110.224L350.155 113.421C352.47 117.097 354.387 121.049 355.844 125.215L361.508 123.233ZM346.224 98.9406C342.82 95.5361 339.036 92.5102 334.941 89.9318L331.744 95.0091C335.458 97.3479 338.892 100.093 341.981 103.183L346.224 98.9406ZM321.932 83.6569C317.442 82.0857 312.726 80.9973 307.847 80.4535L307.182 86.4165C311.607 86.9098 315.881 87.8965 319.95 89.3202L321.932 83.6569Z"
        fill="white" mask="url(#path-1-outside-1_2010_66580)" />
</svg>